<?xml version="1.0" encoding="UTF-8" standalone="no"?>
<svg
   version="1.1"
   width="1080"
   height="1080"
   viewBox="0 0 1080 1080"
   xml:space="preserve"
   id="svg110"
   sodipodi:docname="wedge-path2.svg"
   inkscape:version="1.2.2 (732a01da63, 2022-12-09)"
   xmlns:inkscape="http://www.inkscape.org/namespaces/inkscape"
   xmlns:sodipodi="http://sodipodi.sourceforge.net/DTD/sodipodi-0.dtd"
   xmlns="http://www.w3.org/2000/svg"
   xmlns:svg="http://www.w3.org/2000/svg"><sodipodi:namedview
   id="namedview112"
   pagecolor="#ffffff"
   bordercolor="#000000"
   borderopacity="0.25"
   inkscape:showpageshadow="2"
   inkscape:pageopacity="0.0"
   inkscape:pagecheckerboard="0"
   inkscape:deskcolor="#d1d1d1"
   showgrid="false"
   inkscape:zoom="0.775"
   inkscape:cx="415.48387"
   inkscape:cy="404.51613"
   inkscape:window-width="1228"
   inkscape:window-height="976"
   inkscape:window-x="9"
   inkscape:window-y="16"
   inkscape:window-maximized="0"
   inkscape:current-layer="svg110" />
<desc
   id="desc58">Created with Fabric.js 4.2.0</desc>
<defs
   id="defs60">

























</defs>



<g
   id="rect68" />
<g
   id="rect71" />
<g
   id="rect75" />
<g
   id="rect79" />
<g
   id="rect83" />
<g
   id="rect87" />
<g
   id="rect91" />
<g
   id="rect95" />
<g
   id="rect99"
   transform="matrix(0.63304668,0.77411362,-0.8,0.6,0,0)" />
<g
   id="rect102"
   transform="matrix(0.89264905,0.45075235,0.42808634,-0.90373784,0,0)" />
<g
   id="rect106"><path
     id="path374"
     style="color:#000000;vector-effect:non-scaling-stroke;fill:#000000;-inkscape-stroke:none"
     d="M 321.61133 19.398438 L 316.95117 22.894531 L 833.04883 653.99805 L 776.74609 653.99805 L 776.74609 912.72266 L 834.97461 912.72266 L 834.97461 656.35352 L 992.72852 849.26172 L 997.38867 845.76562 L 321.61133 19.398438 z M 177.33594 81.240234 L 177.33594 634.41992 L 235.56445 634.41992 L 235.56445 81.240234 L 177.33594 81.240234 z M 341.22461 153.99609 L 341.22461 568.88281 L 399.45508 568.88281 L 399.45508 153.99609 L 341.22461 153.99609 z M 850.91602 174.54688 L 850.91602 652.29297 L 909.14453 652.29297 L 909.14453 174.54688 L 850.91602 174.54688 z M 532.21484 376.44141 L 532.21484 678.83789 L 590.44531 678.83789 L 590.44531 376.44141 L 532.21484 376.44141 z M 432.06445 401.32227 L 432.06445 812.23828 L 490.29492 812.23828 L 490.29492 401.32227 L 432.06445 401.32227 z M 258.47461 414.29297 L 258.47461 754.40625 L 316.70508 754.40625 L 316.70508 414.29297 L 258.47461 414.29297 z M 616.19531 558.63867 L 616.19531 909.33984 L 674.42383 909.33984 L 674.42383 558.63867 L 616.19531 558.63867 z M 86.03125 671.86914 L 82.537109 679.24609 L 837.72852 1060.5898 L 841.22461 1053.2129 L 86.03125 671.86914 z M 693.72461 830.5957 L 693.72461 974.18359 L 751.95508 974.18359 L 751.95508 830.5957 L 693.72461 830.5957 z " /></g>
</svg>
